<?xml version="1.0" encoding="UTF-8" standalone="no"?>
<svg
   width="600"
   height="530"
   version="1.1"
   id="svg1"
   sodipodi:docname="Bluesky_Logo.svg"
   inkscape:version="1.3.2 (091e20e, 2023-11-25)"
   xmlns:inkscape="http://www.inkscape.org/namespaces/inkscape"
   xmlns:sodipodi="http://sodipodi.sourceforge.net/DTD/sodipodi-0.dtd"
   xmlns="http://www.w3.org/2000/svg"
   xmlns:svg="http://www.w3.org/2000/svg">
  <defs
     id="defs1" />
  <sodipodi:namedview
     id="namedview1"
     pagecolor="#ffffff"
     bordercolor="#000000"
     borderopacity="0.25"
     inkscape:showpageshadow="2"
     inkscape:pageopacity="0.0"
     inkscape:pagecheckerboard="0"
     inkscape:deskcolor="#d1d1d1"
     inkscape:zoom="8.619474"
     inkscape:cx="328.38431"
     inkscape:cy="395.49977"
     inkscape:window-width="1632"
     inkscape:window-height="1017"
     inkscape:window-x="2334"
     inkscape:window-y="25"
     inkscape:window-maximized="0"
     inkscape:current-layer="svg1" />
  <path
     d="m135.72 44.03c66.496 49.921 138.02 151.14 164.28 205.46 26.262-54.316 97.782-155.54 164.28-205.46 47.98-36.021 125.72-63.892 125.72 24.795 0 17.712-10.155 148.79-16.111 170.07-20.703 73.984-96.144 92.854-163.25 81.433 117.3 19.964 147.14 86.092 82.697 152.22-122.39 125.59-175.91-31.511-189.63-71.766-2.514-7.3797-3.6904-10.832-3.7077-7.8964-0.0174-2.9357-1.1937 0.51669-3.7077 7.8964-13.714 40.255-67.233 197.36-189.63 71.766-64.444-66.128-34.605-132.26 82.697-152.22-67.108 11.421-142.55-7.4491-163.25-81.433-5.9562-21.282-16.111-152.36-16.111-170.07 0-88.687 77.742-60.816 125.72-24.795z"
     fill="#1185fe"
     id="path1"
     style="stroke:#000000;opacity:1;stroke-width:31.7;stroke-dasharray:none;fill:#1185fe;fill-opacity:0" />
  <path
     style="opacity:1;fill:#1185fe;fill-opacity:0;stroke:#000000;stroke-width:1.33918;stroke-dasharray:none"
     d="m 298.4144,400.29403 c -0.84991,-0.12165 -1.16459,-0.20727 -2.04598,-0.55668 -0.99336,-0.3938 -1.07832,-0.4445 -1.83505,-1.095 -0.84596,-0.72721 -1.27749,-1.21823 -1.72734,-1.96547 -0.15396,-0.25575 -0.29235,-0.465 -0.30752,-0.465 -0.0152,0 0.0712,0.23966 0.19202,0.53256 0.22094,0.53581 0.23187,0.70324 0.0329,0.50427 -0.21824,-0.21825 -1.21592,-2.16068 -1.3615,-2.65078 -0.18231,-0.61376 -0.31303,-1.23066 -0.31303,-1.47727 v -0.18233 h 8.971 8.97099 l -0.0391,0.2046 c -0.0215,0.11252 -0.0614,0.35525 -0.0887,0.53939 -0.0273,0.18414 -0.13042,0.59251 -0.22918,0.90749 -0.29022,0.92555 -1.51475,3.08685 -1.51475,2.67352 0,-0.0396 0.0678,-0.23009 0.15067,-0.42342 0.0829,-0.19332 0.13826,-0.36389 0.1231,-0.37905 -0.0152,-0.0152 -0.17855,0.19883 -0.3631,0.47552 -0.44388,0.66551 -0.89131,1.15327 -1.64452,1.79274 -0.54363,0.46153 -0.74754,0.5786 -1.64111,0.9422 -0.93641,0.38102 -1.1257,0.43016 -2.30085,0.59724 -1.50228,0.2136 -1.70262,0.21529 -3.02887,0.0255 z"
     id="path5" />
  <path
     style="opacity:1;fill:#1185fe;fill-opacity:0;stroke:#000000;stroke-width:1.33918;stroke-dasharray:none"
     d="m 298.32029,399.55559 c -0.86788,-0.15283 -2.10803,-0.59775 -2.68365,-0.9628 -0.58199,-0.36909 -1.67361,-1.47804 -2.14813,-2.18224 -0.31341,-0.46511 -0.50702,-0.67936 -0.6631,-0.73377 -0.16094,-0.0561 -0.27794,-0.19073 -0.43341,-0.49871 -0.21751,-0.43089 -0.52472,-1.29202 -0.52472,-1.47084 0,-0.0822 1.40277,-0.0993 8.14669,-0.0993 4.48068,0 8.1467,0.0107 8.1467,0.0237 0,0.14903 -0.29524,0.96546 -0.53111,1.46869 -0.23335,0.49786 -0.34431,0.65409 -0.50861,0.71611 -0.13209,0.0499 -0.4015,0.33839 -0.72529,0.77679 -1.33829,1.81196 -2.72193,2.62562 -5.04558,2.96709 -1.23194,0.18104 -1.9816,0.17988 -3.02979,-0.005 z"
     id="path6" />
  <path
     style="opacity:1;fill:#1185fe;fill-opacity:0;stroke:#000000;stroke-width:1.33918;stroke-dasharray:none"
     d="m 298.6316,398.89454 c -0.69056,-0.12715 -1.53252,-0.39281 -2.12522,-0.67056 -0.73517,-0.34451 -1.62553,-1.15877 -2.40277,-2.19738 -0.27741,-0.3707 -0.62661,-0.76723 -0.77602,-0.88119 -0.20768,-0.15841 -0.49312,-0.59442 -0.49312,-0.75325 0,-0.0593 7.46685,-0.1053 10.57026,-0.0651 l 3.77899,0.049 -0.19009,0.3785 c -0.10455,0.20817 -0.30347,0.4732 -0.44205,0.58895 -0.13858,0.11576 -0.47006,0.48977 -0.73663,0.83115 -1.13954,1.45935 -2.18941,2.16012 -3.79743,2.53475 -0.88538,0.20626 -2.72482,0.30682 -3.38592,0.18509 z"
     id="path7" />
  <path
     style="opacity:1;fill:#1185fe;fill-opacity:0;stroke:#000000;stroke-width:1.33918;stroke-dasharray:none"
     d="m 298.20136,398.06452 c -0.7113,-0.19101 -1.36005,-0.45683 -1.78794,-0.7326 -0.41552,-0.26779 -1.27639,-1.13112 -1.78452,-1.78963 l -0.37317,-0.48359 5.44589,-0.0216 c 2.99524,-0.0119 5.58865,-0.001 5.76313,0.0233 l 0.31725,0.045 -0.55799,0.65768 c -1.02756,1.21115 -1.71242,1.72423 -2.77897,2.08194 -1.14834,0.38514 -3.22667,0.49267 -4.24368,0.21957 z"
     id="path8" />
  <path
     style="opacity:1;fill:#1185fe;fill-opacity:0;stroke:#000000;stroke-width:18;stroke-dasharray:none"
     d="m 299.89502,403.14987 c 0.0494,-1.63567 0.10021,-3.26921 0,-4.9059 -0.0681,-1.11181 -0.29626,-2.18184 -0.17315,-3.28984"
     id="path10" />
  <path
     style="fill:#1185fe;fill-opacity:0;stroke:#000000;stroke-width:2.92008;stroke-dasharray:none"
     d="m 297.46717,406.73525 -2.41655,-0.34463 -1.63656,-0.65726 -1.63656,-0.65726 -1.60545,-1.33975 c -1.38244,-1.15365 -1.71291,-1.48285 -2.379,-2.36993 -0.42545,-0.56661 -0.92024,-1.29141 -1.09953,-1.61068 -0.35387,-0.63013 -0.48572,-0.71385 -0.25514,-0.16201 0.0793,0.18982 0.13015,0.38728 0.11298,0.43879 -0.0172,0.0515 -0.34784,-0.49244 -0.73482,-1.20879 -0.80515,-1.49042 -1.18956,-2.64153 -1.462,-4.37789 -0.0958,-0.61074 -0.17476,-1.18297 -0.17542,-1.27163 -0.001,-0.15032 0.20574,-0.1612 3.06431,-0.1612 h 3.0655 l 0.11974,0.66784 c 0.0659,0.36731 0.15439,1.33108 0.19672,2.1417 0.0423,0.81062 0.12338,1.88837 0.18009,2.39501 0.0567,0.50664 0.0984,1.77093 0.0927,2.80954 l -0.0104,1.88838 7.86017,0.2463 c 4.32309,0.13546 8.38867,0.24946 9.03464,0.25332 l 1.17448,0.007 v -2.20311 c 0,-1.6763 0.0275,-2.21422 0.11514,-2.24957 0.0921,-0.0372 0.0921,-0.0479 0,-0.0537 -0.0777,-0.005 -0.11566,-0.17942 -0.11674,-0.53694 -8.8e-4,-0.29132 -0.0428,-0.92072 -0.0931,-1.39866 l -0.0915,-0.86899 0.31646,-0.74304 c 0.17406,-0.40867 0.38744,-1.10575 0.47419,-1.54906 l 0.15772,-0.80601 h 3.02722 3.02722 v 0.27695 c 0,0.5002 -0.27753,2.15019 -0.48263,2.86927 -0.19478,0.68294 -0.21239,0.70853 -0.55908,0.8124 -0.19688,0.059 -0.33532,0.1299 -0.30764,0.15758 0.0277,0.0277 0.17917,0.005 0.33664,-0.0495 0.27095,-0.0945 0.28312,-0.0889 0.22659,0.10449 -0.0958,0.32772 -1.55902,3.0253 -1.5902,2.93174 -0.0156,-0.0467 0.0366,-0.24028 0.11587,-0.4301 0.22586,-0.54056 0.0984,-0.47606 -0.24076,0.12178 -0.16958,0.29896 -0.67828,1.03803 -1.13044,1.64238 -0.70705,0.94503 -1.02725,1.27102 -2.28771,2.32907 l -1.46558,1.23024 -1.57748,0.63451 -1.57748,0.63451 -2.49082,0.3683 c -1.36995,0.20257 -2.57373,0.38292 -2.67506,0.40078 -0.10133,0.0179 -1.27167,-0.12262 -2.60077,-0.31217 z m 13.03099,-8.25093 c -0.0306,-0.0306 -0.11006,-0.0339 -0.17655,-0.007 -0.0735,0.0294 -0.0517,0.0512 0.0556,0.0557 0.0971,0.004 0.15151,-0.0178 0.1209,-0.0484 z m 0.82905,-0.27635 c -0.0306,-0.0306 -0.11006,-0.0339 -0.17656,-0.007 -0.0735,0.0294 -0.0517,0.0512 0.0557,0.0557 0.0971,0.004 0.15152,-0.0178 0.12091,-0.0484 z m 0.82904,-0.27635 c -0.0306,-0.0306 -0.11006,-0.0339 -0.17656,-0.007 -0.0735,0.0294 -0.0516,0.0512 0.0557,0.0557 0.0971,0.004 0.15151,-0.0178 0.1209,-0.0484 z m 1.64036,-0.57043 c -0.049,-0.049 -0.99162,0.25723 -1.10068,0.35757 -0.0462,0.0425 0.19097,-0.0121 0.52708,-0.12138 0.33611,-0.10928 0.59423,-0.21556 0.5736,-0.23619 z"
     id="path2" />
  <rect
     style="fill:#1185fe;fill-opacity:0;stroke:#000000;stroke-width:31.7;stroke-dasharray:none"
     id="rect3"
     width="1.6242291"
     height="7.4250469"
     x="300.71442"
     y="410.11783" />
</svg>
